# xmcd
# 
# Track frame offsets:
#     150
#     23577
#     41352
#     67777
#     97287
#     123197
#     145507
# 
# Disc length: 2160
# 
# Revision: 0
# Processed by: cddbd v1.5.2PL0 Copyright (c) Steve Scherf et al.
# Submitted via: BonkEnc v1.0.8
# 
DISCID=4f086e07
DTITLE=mudy on the 昨晩 - Kidnie
DYEAR=0
DGENRE=New Wave
TTITLE0=Ozis
TTITLE1=marm
TTITLE2=ｷｾﾙ
TTITLE3=ASAI
TTITLE4=NO ROOM
TTITLE5=ﾐｸﾞﾙｽ
TTITLE6=ZITTA
EXTD=
EXTT0=
EXTT1=
EXTT2=
EXTT3=
EXTT4=
EXTT5=
EXTT6=
PLAYORDER=
